<?xml version="1.0" standalone="no"?><!DOCTYPE svg PUBLIC "-//W3C//DTD SVG 1.1//EN" "http://www.w3.org/Graphics/SVG/1.1/DTD/svg11.dtd"><svg t="1590481010646" class="icon" viewBox="0 0 1024 1024" version="1.1" xmlns="http://www.w3.org/2000/svg" p-id="3766" xmlns:xlink="http://www.w3.org/1999/xlink" width="200" height="200"><defs><style type="text/css"></style></defs><path d="M721 87.4H130.6c-11 0-20 9-20 20v856c0 11 9 20 20 20h790c11 0 20-9 20-20V295L721 87.4z m179.6 228.3v621.7c0 3.3-2.7 6-6 6h-738c-3.3 0-6-2.7-6-6v-804c0-3.3 2.7-6 6-6h546.8l197.2 188.3z" fill="#3F3B3A" p-id="3767"></path><path d="M230.6 603.1h590v40h-590zM230.6 441.6h590v40h-590zM230.6 763.2h590v40h-590zM230.6 268.1h470.5v40H230.6z" fill="#3F3B3A" p-id="3768"></path></svg>