<?xml version="1.0" standalone="no"?><!DOCTYPE svg PUBLIC "-//W3C//DTD SVG 1.1//EN" "http://www.w3.org/Graphics/SVG/1.1/DTD/svg11.dtd"><svg t="1590480678667" class="icon" viewBox="0 0 1024 1024" version="1.1" xmlns="http://www.w3.org/2000/svg" p-id="2798" xmlns:xlink="http://www.w3.org/1999/xlink" width="200" height="200"><defs><style type="text/css"></style></defs><path d="M0 81.92m102.4 0l819.2 0q102.4 0 102.4 102.4l0 737.28q0 102.4-102.4 102.4l-819.2 0q-102.4 0-102.4-102.4l0-737.28q0-102.4 102.4-102.4Z" fill="#FFC643" p-id="2799"></path><path d="M0 0m102.4 0l184.32 0q102.4 0 102.4 102.4l0 102.4q0 102.4-102.4 102.4l-184.32 0q-102.4 0-102.4-102.4l0-102.4q0-102.4 102.4-102.4Z" fill="#FFC643" p-id="2800"></path><path d="M112.64 184.32h798.72v276.48H112.64z" fill="#FFFFFF" p-id="2801"></path><path d="M133.12 204.8h757.76v235.52H133.12z" fill="#C7E66F" p-id="2802"></path><path d="M84.6848 353.90464l770.3552-210.944L928.07168 409.6 157.696 620.544z" fill="#FFFFFF" p-id="2803"></path><path d="M109.84448 368.25088L840.704 168.09984l62.208 227.15392L172.032 595.4048z" fill="#B0A6C9" p-id="2804"></path><path d="M180.9408 364.10368l795.82208-68.00384 23.552 275.456-795.82208 68.00384z" fill="#FFFFFF" p-id="2805"></path><path d="M203.08992 382.76096l755.00544-64.512L978.15552 552.96l-755.01568 64.512z" fill="#FF8989" p-id="2806"></path><path d="M0 542.72h1024v378.88a102.4 102.4 0 0 1-102.4 102.4H102.4A102.4 102.4 0 0 1 0 921.6V542.72z" fill="#FDCE62" p-id="2807"></path><path d="M0 378.88h860.16l163.84 163.84H0V378.88z" fill="#FDCE62" p-id="2808"></path><path d="M860.16 542.72h163.84v378.88a102.4 102.4 0 0 1-102.4 102.4h-61.44V542.72z" fill="#ECBB4A" p-id="2809"></path><path d="M266.24 378.88h593.92v645.12" fill="#ECBB4A" p-id="2810"></path><path d="M860.16 378.88l163.84 163.84H860.16V378.88z" fill="#FFD87E" p-id="2811"></path><path d="M1024 706.56L860.16 542.72h163.84v163.84z" fill="#D29C26" p-id="2812"></path></svg>