<?xml version="1.0" standalone="no"?><!DOCTYPE svg PUBLIC "-//W3C//DTD SVG 1.1//EN" "http://www.w3.org/Graphics/SVG/1.1/DTD/svg11.dtd"><svg t="1590481080691" class="icon" viewBox="0 0 1024 1024" version="1.1" xmlns="http://www.w3.org/2000/svg" p-id="4541" xmlns:xlink="http://www.w3.org/1999/xlink" width="200" height="200"><defs><style type="text/css"></style></defs><path d="M444.55783545 377.18475925c30.74001094 0 59.77444005 6.58997029 87.17250026 19.72541697 20.54607348 9.66990385 39.15915441 22.85973118 55.80463852 39.54476436 16.67514576 16.66031421 29.86991717 35.24867761 39.52993285 55.78486364-13.1749965 13.18488395-29.07397894 19.75507933-47.65739822 19.75507934-6.49109576 0-13.06129113-0.98874249-19.72541698-2.91679094a137.16333182 137.16333182 0 0 0-44.79004383-44.77521375c-21.57930914-13.13050331-45.02239865-19.73530442-70.30949432-19.73530442-17.57984526 0-34.58621964 3.33700664-51.09822278 10.01101993-16.49717232 6.68390074-31.22943809 16.51200313-44.24623605 29.51396955L248.11443483 585.20633655c-12.98713559 12.98713559-22.81523799 27.72434546-29.48925055 44.24623603a134.94360384 134.94360384 0 0 0-10.01101992 51.06856043c0 17.55018291 3.33700664 34.58621964 10.01101992 51.06856114 6.67401328 16.52189059 16.50211568 31.25910045 29.48925055 44.24623604 13.00691049 13.00691049 27.74906374 22.83501289 44.2363486 29.51396955a135.14135293 135.14135293 0 0 0 51.1179984 10.00113247c17.56007035 0 34.57633219-3.32217583 51.09822278-9.9961891 16.50211568-6.68390074 31.22943809-16.51200313 44.23634859-29.51396955l70.83352722-70.80880894c22.47412192 6.13020478 45.71946233 9.21013834 69.77062843 9.21013835 3.88081516 0 9.30901287-0.17797344 16.31425478-0.51414615a261.61637531 261.61637531 0 0 1-8.14723957 8.68116136l-101.11377262 101.10882852c-19.51778117 19.47823134-41.57663073 34.22532866-66.24576162 44.24623605A202.04957179 202.04957179 0 0 1 343.46878183 882.76845314c-26.35493708 0-51.953485-5.03764437-76.76598361-15.1475381-24.81249788-10.07528802-46.88123563-24.79272297-66.24576162-44.09792426-19.47823134-19.49800625-34.21049785-41.56674328-44.22646114-66.23587415A202.39563123 202.39563123 0 0 1 141.21157424 680.55573945 202.49450576 202.49450576 0 0 1 156.23057546 603.79469921c10.02090738-24.66913015 24.7482298-46.73786792 44.22646115-66.23092935L301.58564075 436.44999723c1.95771081-1.92804845 4.84483938-4.63720358 8.69104809-8.1472403 18.81083002-16.68503321 39.79195-29.38048927 62.95324816-38.066594 23.17612897-8.65644237 46.96033454-13.03657286 71.36744827-13.03657213l-0.03954982-0.01977492zM680.536113 141.24108814a201.91609152 201.91609152 0 0 1 76.74620872 15.02888867c24.64441189 9.9764142 46.73786792 24.73339898 66.2457609 44.24129269 19.4881188 19.45351234 34.23521612 41.51236265 44.24623604 66.19632362A202.94932719 202.94932719 0 0 1 882.76860161 343.47357673c0 26.33021808-5.05741927 51.90404846-15.12776322 76.74620872-10.11483784 24.82732942-24.81744198 46.90100982-44.13747405 66.19632435L722.37970427 587.52988243c-1.92804845 1.97748572-4.82012038 4.69652758-8.69104881 8.19667682-18.76633684 16.69492067-39.74745683 29.35082692-62.95324744 38.02210083a202.47473085 202.47473085 0 0 1-71.35756153 13.06129114c-30.71529194 0-59.78927159-6.58997029-87.16755617-19.72541696-20.55101684-9.67979131-39.12949277-22.85973118-55.81452599-39.54970848-16.67514576-16.66031421-29.83036735-35.24867761-39.51015793-55.789807C410.0358839 518.56507821 425.92003552 511.98993946 444.53311718 511.98993946c6.48615239 0 13.0909535 0.98874249 19.75507861 2.91679094a136.64424158 136.64424158 0 0 0 44.75049475 44.77521374c21.60897151 13.13050331 45.03723019 19.72541696 70.31938177 19.72541697 17.55018291 0 34.58621964-3.33700664 51.08339123-10.00113247 16.51200313-6.68390074 31.24921299-16.51200313 44.23140522-29.51397027l101.13354753-101.12366008c13.00691049-12.97724814 22.83501289-27.71445801 29.52880037-44.23634787a135.13146547 135.13146547 0 0 0 10.00113247-51.06856114c0-17.56007035-3.33700664-34.5961071-10.00113247-51.06856042-6.69378819-16.52189059-16.52189059-31.25910045-29.52880037-44.24623604-13.0019664-13.00691049-27.72928883-22.83501289-44.24623604-29.5288011a135.17101528 135.17101528 0 0 0-51.0784486-9.99618837c-17.55018291 0-34.58621964 3.33700664-51.08833533 9.99618837-16.51200313 6.69378819-31.24921299 16.52189059-44.22646114 29.5288011l-70.86318956 70.79397739c-22.46423447-6.12031732-45.72440642-9.19530679-69.77062844-9.1953068-3.85609689 0-9.31395623 0.16314263-16.33897377 0.49931461a246.86433461 246.86433461 0 0 1 8.1670152-8.68116064l101.12860344-101.10882853c19.32991953-19.3002579 41.40360065-34.01769285 66.23587416-44.09298087C628.56779645 146.25401351 654.14162611 141.21142578 680.48173165 141.21142578l0.04943727 0.02966236z" p-id="4542"></path></svg>